<svg width="49" height="42" viewBox="0 0 49 42" fill="none" xmlns="http://www.w3.org/2000/svg">
<path d="M46.4521 3.09473H28.8311C26.3197 3.09473 24.2837 5.13065 24.2837 7.6421V34.9263H46.4521V3.09473Z" fill="#61ABFF"/>
<path d="M2.68408 3.09473H20.3051C22.8166 3.09473 24.8525 5.13065 24.8525 7.6421V34.9263H2.68408V3.09473Z" fill="#61ABFF"/>
<rect x="7.7998" y="10.4843" width="11.9368" height="2.27368" fill="white"/>
<rect x="7.7998" y="16.7368" width="7.9579" height="2.27368" fill="white"/>
<rect x="7.7998" y="22.421" width="7.9579" height="2.27368" fill="white"/>
<rect width="11.9368" height="2.27368" transform="matrix(-1 0 0 1 41.3364 10.4843)" fill="white"/>
<rect width="7.9579" height="2.27368" transform="matrix(-1 0 0 1 41.3364 16.7368)" fill="white"/>
<rect width="7.9579" height="2.27368" transform="matrix(-1 0 0 1 41.3364 22.421)" fill="white"/>
<path d="M37.3576 28.9579C37.3576 35.7074 31.8861 41.1789 25.1366 41.1789C18.3871 41.1789 12.9155 35.7074 12.9155 28.9579C12.9155 22.2084 18.3871 16.7368 25.1366 16.7368C31.8861 16.7368 37.3576 22.2084 37.3576 28.9579Z" fill="#036ADF"/>
<path d="M21.7563 32.4062V26.124C21.7563 25.3135 22.6423 24.8144 23.3355 25.2345L28.7911 28.541C29.477 28.9567 29.4541 29.9595 28.75 30.3435L23.2944 33.3193C22.6013 33.6974 21.7563 33.1957 21.7563 32.4062Z" fill="#036ADF"/>
<path d="M29.9681 29.6786C30.726 30.1162 30.726 31.2101 29.9681 31.6477L24.426 34.8474C23.6681 35.285 22.7207 34.738 22.7207 33.8629V27.4634C22.7207 26.5882 23.6681 26.0413 24.426 26.4789L29.9681 29.6786Z" fill="#000689"/>
<path d="M37.0732 27.821C37.0732 35.0414 31.2199 40.8947 23.9995 40.8947C16.7791 40.8947 10.9258 35.0414 10.9258 27.821C10.9258 20.6006 16.7791 14.7473 23.9995 14.7473C31.2199 14.7473 37.0732 20.6006 37.0732 27.821ZM20.589 31.5902V24.7236C20.589 24.0591 21.3153 23.65 21.8835 23.9944L27.8466 27.6084C28.4089 27.9492 28.3902 28.7713 27.813 29.0861L21.8499 32.3387C21.2817 32.6486 20.589 32.2374 20.589 31.5902ZM20.0206 24.7236V31.5902C20.0206 32.6688 21.1751 33.3542 22.1221 32.8377L28.0852 29.5851C29.0472 29.0604 29.0784 27.6903 28.1412 27.1223L22.1781 23.5083C21.2311 22.9343 20.0206 23.6162 20.0206 24.7236Z" stroke="black" stroke-width="0.568421"/>
<path d="M24.284 14.4632V5.36841C24.284 2.85697 26.32 0.821045 28.8314 0.821045H48.1577V33.7895H36.2209" stroke="black" stroke-width="0.568421"/>
<path d="M24.2838 14.4632V5.36841C24.2838 2.85697 22.2479 0.821045 19.7365 0.821045H0.410156V33.7895H12.347" stroke="black" stroke-width="0.568421"/>
</svg>
