<svg width="16" height="16" viewBox="0 0 16 16" fill="none" xmlns="http://www.w3.org/2000/svg">
<path d="M4.88159 0.90432C3.94559 0.66672 2.96459 0.76752 2.19599 1.19772C1.41299 1.63512 0.863989 2.41092 0.836989 3.44862C0.795589 5.07042 1.17089 7.24662 2.66129 9.80082C4.13279 12.3235 5.75729 13.8355 7.10549 14.7337C7.95689 15.3016 8.89739 15.3169 9.70109 14.947C10.4931 14.5825 11.1357 13.8544 11.4696 12.9517C11.5527 12.7272 11.5861 12.4873 11.5674 12.2487C11.5488 12.01 11.4785 11.7782 11.3616 11.5693L10.503 10.0375C10.2391 9.56607 9.81429 9.20534 9.30631 9.02125C8.79834 8.83716 8.24108 8.84202 7.73639 9.03492L7.13699 9.26442C6.84629 9.37512 6.57899 9.32382 6.42779 9.17442C5.91929 8.67492 5.55569 7.99722 5.39099 7.26642C5.33879 7.03602 5.44499 6.76422 5.69879 6.57252L6.23969 6.16392C6.67697 5.83395 6.97886 5.35578 7.08871 4.81909C7.19857 4.2824 7.10885 3.72407 6.83639 3.24882L5.96159 1.72332C5.84569 1.52136 5.69036 1.34477 5.50482 1.20407C5.31928 1.06337 5.10733 0.96143 4.88159 0.90432ZM1.73699 3.47292C1.75499 2.77632 2.10779 2.27862 2.63519 1.98342C3.17699 1.68012 3.91679 1.58742 4.66019 1.77642C4.88069 1.83222 5.06789 1.97442 5.18129 2.17152L6.05519 3.69702C6.21864 3.98205 6.27253 4.31692 6.20675 4.63884C6.14098 4.96076 5.96005 5.24765 5.69789 5.44572L5.15699 5.85432C4.68899 6.20712 4.36499 6.81192 4.51259 7.46442C4.71239 8.34822 5.15429 9.18612 5.79689 9.81702C6.26669 10.2778 6.93629 10.3048 7.45829 10.105L8.05769 9.87552C8.36053 9.7596 8.69498 9.75656 8.99988 9.86695C9.30478 9.97734 9.55976 10.1938 9.71819 10.4767L10.5759 12.0094C10.6839 12.202 10.7019 12.4324 10.6254 12.6394C10.3644 13.3459 9.87389 13.876 9.32489 14.1289C8.78759 14.3764 8.18009 14.3692 7.60499 13.9849C6.37109 13.1623 4.84199 11.752 3.43799 9.34722C2.03309 6.93522 1.70009 4.92462 1.73789 3.47292H1.73699ZM10.4688 0.85572C10.3645 0.797717 10.2414 0.783527 10.1266 0.816271C10.0119 0.849015 9.91479 0.92601 9.85679 1.03032C9.79879 1.13463 9.7846 1.25771 9.81734 1.37248C9.85008 1.48725 9.92708 1.58432 10.0314 1.64232L10.377 1.83492C11.4566 2.43468 12.375 3.28693 13.0537 4.31884C13.7323 5.35074 14.151 6.5316 14.274 7.76052L14.3028 8.04402C14.3062 8.1047 14.3218 8.16406 14.3488 8.21853C14.3758 8.27299 14.4135 8.32143 14.4597 8.36092C14.5059 8.40041 14.5596 8.43013 14.6176 8.44829C14.6756 8.46646 14.7367 8.47269 14.7971 8.4666C14.8576 8.46052 14.9162 8.44225 14.9694 8.4129C15.0226 8.38355 15.0694 8.34372 15.1068 8.29582C15.1442 8.24792 15.1715 8.19294 15.1871 8.13419C15.2026 8.07545 15.2061 8.01416 15.1974 7.95402L15.1695 7.67142C15.0322 6.29765 14.5642 4.97757 13.8056 3.82403C13.0471 2.67049 12.0204 1.7178 10.8135 1.04742L10.4688 0.85572ZM9.41399 3.26772C9.47547 3.16545 9.57504 3.09179 9.69082 3.06293C9.8066 3.03407 9.9291 3.05238 10.0314 3.11382L10.143 3.18042C10.8695 3.61598 11.4927 4.2041 11.9696 4.90414C12.4465 5.60418 12.7657 6.39943 12.9051 7.23492L12.9447 7.47522C12.956 7.53415 12.9554 7.59475 12.943 7.65345C12.9306 7.71215 12.9065 7.76777 12.8722 7.81704C12.838 7.86631 12.7942 7.90823 12.7435 7.94033C12.6928 7.97243 12.6362 7.99407 12.577 8.00398C12.5179 8.01388 12.4573 8.01185 12.3989 7.998C12.3405 7.98415 12.2855 7.95876 12.2371 7.92333C12.1886 7.8879 12.1478 7.84314 12.1169 7.79169C12.086 7.74023 12.0658 7.68312 12.0573 7.62372L12.0168 7.38342C11.899 6.6766 11.6292 6.00377 11.226 5.41143C10.8227 4.81909 10.2957 4.32135 9.68129 3.95262L9.56969 3.88512C9.51898 3.85475 9.47474 3.81469 9.43952 3.76723C9.40429 3.71976 9.37876 3.66582 9.36439 3.60849C9.35001 3.55115 9.34707 3.49155 9.35574 3.43308C9.3644 3.37461 9.3836 3.31842 9.41399 3.26772Z" fill="white"/>
</svg>
