<svg width="130" height="111" viewBox="0 0 130 111" fill="none" xmlns="http://www.w3.org/2000/svg">
<path d="M30.5859 95.184V18.2924C30.2063 14.5093 31.3826 6.8296 39.124 6.37562H104.3C108.19 5.90274 116.311 6.54586 117.677 12.9015V25.6694H101.169V102.561C101.169 108.463 97.9438 109.181 96.331 108.803C93.8264 110.619 89.2158 110.884 87.2236 110.789H30.5859C15.786 110.335 15.5014 100.197 17.2091 95.184H30.5859Z" fill="#40BE90"/>
<path d="M26.6506 93.9563V13.752C26.2559 9.80595 27.4791 1.79541 35.5291 1.32188H103.303M26.6506 93.9563H85.546M26.6506 93.9563H12.7407C10.9649 99.1848 11.2609 109.76 26.6506 110.234H85.546M85.546 93.9563V110.234M85.546 93.9563C84.8553 99.1848 85.7825 109.346 95.0164 108.162M85.546 110.234C87.6176 110.333 92.4119 110.056 95.0164 108.162M95.0164 108.162C96.6934 108.557 100.048 107.807 100.048 101.651V21.4469M100.048 21.4469V13.752C99.8503 10.4965 100.225 3.45276 103.303 1.32188M100.048 21.4469H117.213V8.12888C115.793 1.49945 107.348 0.828618 103.303 1.32188" stroke="black"/>
<rect x="50.6233" y="16.1198" width="26.0442" height="3.55148" fill="#F98810"/>
<rect x="38.7842" y="28.5499" width="46.1692" height="3.55148" fill="#F98810"/>
<rect x="38.7842" y="59.9213" width="27.228" height="3.55148" fill="#F98810"/>
<rect x="38.7842" y="72.3515" width="17.7574" height="3.55148" fill="#F98810"/>
<rect x="38.7842" y="47.4911" width="46.1692" height="3.55148" fill="#F98810"/>
<rect x="38.7842" y="38.0204" width="46.1692" height="3.55148" fill="#F98810"/>
<circle cx="79.6269" cy="70.5757" r="9.22061" stroke="#FF0000" stroke-width="0.5"/>
<path d="M76.8446 78.9611C75.4198 77.2635 73.4251 72.4906 76.8446 66.9787C78.1744 65.381 81.9737 62.5452 86.533 63.9831C88.1478 64.3825 91.6623 66.3197 92.8021 70.873C93.1821 72.9699 93.0301 77.8227 89.3826 80.4588L88.8127 89.4456L84.2533 86.7496L78.3397 89.4456V80.4588C77.8273 80.0435 77.3267 79.5478 76.8446 78.9611Z" fill="#F98810"/>
<path d="M85.2501 77.9746C89.0384 75.3702 89.1962 70.5757 88.8016 68.504C87.6178 64.0054 83.9677 62.0916 82.2906 61.697C77.5553 60.2764 73.6093 63.0781 72.2283 64.6565C68.6768 70.1021 70.7485 74.8177 72.2283 76.4948C72.7289 77.0745 73.2489 77.5642 73.781 77.9746M85.2501 77.9746C83.0584 79.465 78.0307 81.2516 73.781 77.9746M85.2501 77.9746L84.6582 86.8533L79.9229 84.1897L73.781 86.8533V77.9746" stroke="black"/>
</svg>
