<svg width="40" height="40" viewBox="0 0 40 40" fill="none" xmlns="http://www.w3.org/2000/svg">
<path d="M16.6667 28.3333L10 21.6667L12.35 19.3167L16.6667 23.6167L27.65 12.6333L30 15L16.6667 28.3333ZM20 5C20.442 5 20.8659 5.17559 21.1785 5.48815C21.4911 5.80071 21.6667 6.22464 21.6667 6.66666C21.6667 7.10869 21.4911 7.53261 21.1785 7.84517C20.8659 8.15774 20.442 8.33333 20 8.33333C19.558 8.33333 19.134 8.15774 18.8215 7.84517C18.5089 7.53261 18.3333 7.10869 18.3333 6.66666C18.3333 6.22464 18.5089 5.80071 18.8215 5.48815C19.134 5.17559 19.558 5 20 5ZM31.6667 5H24.7C24 3.06666 22.1667 1.66666 20 1.66666C17.8333 1.66666 16 3.06666 15.3 5H8.33333C7.44928 5 6.60143 5.35119 5.97631 5.97631C5.35119 6.60143 5 7.44928 5 8.33333V31.6667C5 32.5507 5.35119 33.3986 5.97631 34.0237C6.60143 34.6488 7.44928 35 8.33333 35H31.6667C32.5507 35 33.3986 34.6488 34.0237 34.0237C34.6488 33.3986 35 32.5507 35 31.6667V8.33333C35 7.44928 34.6488 6.60143 34.0237 5.97631C33.3986 5.35119 32.5507 5 31.6667 5Z" fill="#FFA110"/>
</svg>
