<svg width="40" height="40" viewBox="0 0 40 40" fill="none" xmlns="http://www.w3.org/2000/svg">
<path d="M14.9999 36.6667C14.5579 36.6667 14.134 36.4911 13.8214 36.1785C13.5088 35.8659 13.3333 35.442 13.3333 35V30H6.66659C5.78253 30 4.93468 29.6488 4.30956 29.0237C3.68444 28.3986 3.33325 27.5507 3.33325 26.6667V6.66666C3.33325 4.81666 4.83325 3.33333 6.66659 3.33333H33.3333C34.2173 3.33333 35.0652 3.68452 35.6903 4.30964C36.3154 4.93476 36.6666 5.78261 36.6666 6.66666V26.6667C36.6666 27.5507 36.3154 28.3986 35.6903 29.0237C35.0652 29.6488 34.2173 30 33.3333 30H23.1666L16.9999 36.1833C16.6666 36.5 16.2499 36.6667 15.8333 36.6667H14.9999ZM26.6666 23.3333V21.6667C26.6666 19.45 22.2166 18.3333 19.9999 18.3333C17.7833 18.3333 13.3333 19.45 13.3333 21.6667V23.3333H26.6666ZM19.9999 10C19.1159 10 18.268 10.3512 17.6429 10.9763C17.0178 11.6014 16.6666 12.4493 16.6666 13.3333C16.6666 14.2174 17.0178 15.0652 17.6429 15.6904C18.268 16.3155 19.1159 16.6667 19.9999 16.6667C20.884 16.6667 21.7318 16.3155 22.3569 15.6904C22.9821 15.0652 23.3333 14.2174 23.3333 13.3333C23.3333 12.4493 22.9821 11.6014 22.3569 10.9763C21.7318 10.3512 20.884 10 19.9999 10Z" fill="#FFA110"/>
</svg>
