<svg width="130" height="125" viewBox="0 0 130 125" fill="none" xmlns="http://www.w3.org/2000/svg">
<path d="M34 125V34.2165L108 6V125H81.3115H62.8115H34Z" fill="#5BC7E3"/>
<path d="M61.6968 104.521V119H78.1968V104.521H61.6968Z" fill="#2093B0"/>
<path d="M57.0061 119.467H28V29.0902L102.5 1V119.467H75.6311M57.0061 119.467V103.285H75.6311V119.467M57.0061 119.467H75.6311" stroke="black"/>
<path d="M38.0759 41.6086H50.289" stroke="#F98810" stroke-width="2"/>
<path d="M61.2808 41.6086H73.4939" stroke="#F98810" stroke-width="2"/>
<path d="M83.2644 41.6086H95.4775" stroke="#F98810" stroke-width="2"/>
<path d="M83.2644 26.9529H95.4775" stroke="#F98810" stroke-width="2"/>
<path d="M38.0759 56.2643H50.289" stroke="#F98810" stroke-width="2"/>
<path d="M61.2808 56.2643H73.4939" stroke="#F98810" stroke-width="2"/>
<path d="M83.2644 56.2643H95.4775" stroke="#F98810" stroke-width="2"/>
<path d="M38.0759 72.1414H50.289" stroke="#F98810" stroke-width="2"/>
<path d="M61.2808 72.1414H73.4939" stroke="#F98810" stroke-width="2"/>
<path d="M83.2644 72.1414H95.4775" stroke="#F98810" stroke-width="2"/>
<path d="M38.0759 86.7971H50.289" stroke="#F98810" stroke-width="2"/>
<path d="M61.2808 86.7971H73.4939" stroke="#F98810" stroke-width="2"/>
<path d="M83.2644 86.7971H95.4775" stroke="#F98810" stroke-width="2"/>
<path d="M38.0759 103.896H50.289" stroke="#F98810" stroke-width="2"/>
<path d="M61.2808 103.896H73.4939" stroke="#F98810" stroke-width="2"/>
<path d="M83.2644 103.896H95.4775" stroke="#F98810" stroke-width="2"/>
</svg>
