<svg width="130" height="110" viewBox="0 0 130 110" fill="none" xmlns="http://www.w3.org/2000/svg">
<rect x="22.606" y="26.9394" width="85.5152" height="52.5455" rx="4" fill="#545AE8"/>
<path d="M87.9723 65.0606V55.9671C80.6906 55.9671 78.4517 53.2494 78.2424 51.8906V20.5336C78.9957 16.7707 82.3227 14.9938 83.892 14.5757H120.301C124.318 15.5792 125.532 18.9657 125.636 20.5336V51.8906C124.632 54.9009 121.661 55.8625 120.301 55.9671H95.819L87.9723 65.0606Z" fill="#FCA333"/>
<path d="M111 36L94.5 45.5263V26.4737L111 36Z" fill="#EC7406"/>
<path d="M6.12134 86.697H128.727V87C128.727 92.5228 124.25 97 118.727 97H16.1213C10.5985 97 6.12134 92.5228 6.12134 87V86.697Z" fill="#545AE8"/>
<path d="M68.0326 22.7772H16.9993V83.9538H3.36929M3.36929 83.9538C-0.180848 90.0397 4.00325 93.8857 6.53906 95.0479H123.821C129.399 94.2872 129.103 87.3348 128.258 83.9538H113.677M3.36929 83.9538H26.5088H113.677M113.677 61.1314V83.9538M84.5155 53.841V63.0333L92.4399 53.841H117.164C118.538 53.7353 121.539 52.7632 122.553 49.7203V18.0226C122.447 16.4377 121.221 13.0143 117.164 12H80.3948C78.8099 12.4226 75.45 14.2188 74.6892 18.0226V49.7203C74.9006 51.0938 77.1617 53.841 84.5155 53.841ZM92.4399 24.0451V41.4789L106.704 31.9695L92.4399 24.0451Z" stroke="black"/>
<path d="M29.9755 83.606C29.5826 81.7873 29.6808 77.5179 33.2169 74.9907C32.8239 72.3104 33.4524 66.5478 39.1102 64.9396C37.4891 63.6758 36.7557 60.875 36.5125 57.7602C33.4914 58.2197 32.6636 56.0371 32.6273 54.8884C32.6273 53.6641 33.2968 52.9291 34.1007 52.5096C33.7078 50.0479 33.7471 44.6649 37.0475 42.827C36.0652 43.1142 34.3954 42.3675 35.5741 37.0835C41.2711 35.9348 53.5493 35.0158 57.0854 40.5296C58.7552 41.104 61.8002 44.2055 60.6215 52.0167V52.4422C61.5083 53.0743 61.6269 54.1787 61.5055 54.8884C61.034 56.7263 58.9517 57.5687 57.9694 57.7602V59.4832C57.5744 61.2155 56.1866 63.2031 55.227 64.3652L55.9067 64.9396C57.8712 66.2797 61.5645 70.0513 60.6215 74.4164C62.2913 76.6181 65.4542 81.5384 64.747 83.606H55.227H47.0664H39.1102H29.9755Z" fill="#7E84FF"/>
<path d="M36.821 63.3611C30.735 65.1362 30.059 71.4968 30.4817 74.4553C26.678 77.2447 26.5723 81.9571 26.995 83.9646H36.821M36.821 63.3611C35.0773 61.9661 34.2883 58.8747 34.0267 55.4367M36.821 63.3611C37.6811 63.8824 38.8305 64.4551 40.1502 64.946M57.1075 55.4367V57.3385C56.6826 59.2506 55.1898 61.4444 54.1575 62.7271M57.1075 55.4367C58.1641 55.2254 60.4041 54.2956 60.9112 52.2669C61.0418 51.4835 60.9142 50.2645 59.9603 49.5669M57.1075 55.4367V49.0971M57.1075 49.0971V44.9764C51.1906 45.5047 38.8496 45.547 36.821 41.4897C36.187 41.0671 34.8557 40.9825 34.6021 44.0255C34.1444 46.8294 33.7176 51.375 34.0267 55.4367M57.1075 49.0971C58.4642 48.9033 59.3703 49.1354 59.9603 49.5669M33.6512 49.0971C33.059 49.0971 32.1902 49.2354 31.4324 49.6412M34.0267 55.4367C30.7769 55.9438 29.8865 53.5348 29.8475 52.2669C29.8475 50.9155 30.5677 50.1042 31.4324 49.6412M31.4324 49.6412C31.0097 46.9241 31.052 40.9825 34.6021 38.9539C33.5456 39.2709 31.7494 38.4467 33.0173 32.6143C39.1455 31.3464 52.3528 30.3321 56.1566 36.4181C57.9528 37.052 61.2282 40.4754 59.9603 49.0971V49.5669M54.1575 62.7271C53.9576 62.9755 53.775 63.1897 53.6208 63.3611C52.7499 64.2319 51.7856 64.866 50.768 65.3083M54.1575 62.7271L54.8887 63.3611C57.0018 64.8403 60.9746 69.0033 59.9603 73.8213C61.7565 76.2515 65.1587 81.6824 64.398 83.9646H54.1575M40.1502 64.946V67.7988C37.4884 68.3059 37.4556 70.7572 37.7719 71.9195C38.4111 72.9421 39.3455 73.6372 40.4383 74.0879M40.1502 64.946C43.262 66.1035 47.321 66.8063 50.768 65.3083M50.768 65.3083V67.7988C52.2472 68.644 54.3181 71.0319 50.768 73.8213M50.768 73.8213C49.4298 74.253 47.439 74.6917 45.3794 74.783M50.768 73.8213C50.768 74.3285 53.0276 80.7948 54.1575 83.9646M40.4383 74.0879L36.821 83.9646M40.4383 74.0879C41.9098 74.6949 43.6684 74.8588 45.3794 74.783M36.821 83.9646H45.3794M45.3794 74.783V83.9646M45.3794 83.9646H54.1575" stroke="black"/>
</svg>
