<svg width="35" height="35" viewBox="0 0 35 35" fill="none" xmlns="http://www.w3.org/2000/svg">
<path d="M19.0037 8.725L20.0087 8.52375V5H18.7587C15.2787 5 12.6262 5.96375 10.8725 7.865C8.51248 10.425 8.74998 13.7125 8.75748 13.75V23.75C8.75748 24.0815 8.88918 24.3995 9.1236 24.6339C9.35802 24.8683 9.67596 25 10.0075 25H18.7575C20.1362 25 21.2575 23.8787 21.2575 22.5V13.75C21.2575 13.4185 21.1258 13.1005 20.8914 12.8661C20.6569 12.6317 20.339 12.5 20.0075 12.5H14.9087C14.9362 11.9975 15.0625 11.36 15.445 10.755C16.0812 9.75375 17.2775 9.07125 19.0037 8.725Z" fill="black"/>
<path d="M22.0729 9.68894L22.0728 9.68897C19.9897 10.1068 18.4417 10.9505 17.5972 12.2794L17.5966 12.2803C17.0918 13.0788 16.9296 13.9127 16.8943 14.5561L16.8655 15.0834H17.3936H23.3421C23.5963 15.0834 23.8401 15.1843 24.0198 15.3641C24.1995 15.5438 24.3005 15.7875 24.3005 16.0417V26.25C24.3005 27.5824 23.2162 28.6667 21.8838 28.6667H11.6755C11.4213 28.6667 11.1776 28.5657 10.9978 28.386C10.8181 28.2063 10.7171 27.9625 10.7171 27.7084V16.0417V15.9922L10.7129 15.9712C10.7127 15.9681 10.7125 15.9647 10.7123 15.9608C10.7108 15.9353 10.7089 15.8958 10.7075 15.8434C10.7048 15.7387 10.704 15.5844 10.7114 15.3896C10.7264 14.9996 10.7744 14.4504 10.905 13.8126C11.1664 12.5352 11.7546 10.9224 13.0522 9.51488C14.9741 7.43127 17.9146 6.33337 21.8853 6.33337H22.8436V9.53461L22.0729 9.68894ZM10.7147 15.9941C10.7147 15.9944 10.7145 15.9923 10.7141 15.9873C10.7145 15.9914 10.7147 15.9939 10.7147 15.9941Z" stroke="#FF0000"/>
</svg>
