<svg width="40" height="40" viewBox="0 0 40 40" fill="none" xmlns="http://www.w3.org/2000/svg">
<path d="M26.6667 25H15.0001V21.6667H26.6667V25ZM31.6667 18.3333H15.0001V15H31.6667V18.3333ZM31.6667 11.6667H15.0001V8.33333H31.6667V11.6667ZM35.0001 1.66666H11.6667C9.81675 1.66666 8.33341 3.15 8.33341 5V28.3333C8.33341 30.1833 9.83341 31.6667 11.6667 31.6667H35.0001C36.8501 31.6667 38.3334 30.1833 38.3334 28.3333V5C38.3334 3.15 36.8334 1.66666 35.0001 1.66666ZM5.00008 8.33333V35H31.6667V38.3333H5.00008C4.11603 38.3333 3.26818 37.9821 2.64306 37.357C2.01794 36.7319 1.66675 35.884 1.66675 35V8.33333H5.00008Z" fill="#FFA110"/>
</svg>
