<svg width="25" height="24" viewBox="0 0 25 24" fill="none" xmlns="http://www.w3.org/2000/svg">
<path d="M12.54 2C7.08005 2 2.63005 6.45 2.63005 11.91C2.63005 13.66 3.09005 15.36 3.95005 16.86L2.55005 22L7.80005 20.62C9.25005 21.41 10.88 21.83 12.54 21.83C18 21.83 22.4501 17.38 22.4501 11.92C22.4501 9.27 21.42 6.78 19.55 4.91C17.68 3.03 15.19 2 12.54 2ZM12.55 3.67C14.75 3.67 16.81 4.53 18.37 6.09C19.92 7.65 20.7801 9.72 20.7801 11.92C20.7801 16.46 17.08 20.15 12.54 20.15C11.06 20.15 9.61005 19.76 8.35005 19L8.05005 18.83L4.93005 19.65L5.76005 16.61L5.56005 16.29C4.74005 15 4.30005 13.47 4.30005 11.91C4.31005 7.37 8.00005 3.67 12.55 3.67ZM9.03005 7.33C8.87005 7.33 8.60005 7.39 8.37005 7.64C8.15005 7.89 7.50005 8.5 7.50005 9.71C7.50005 10.93 8.39005 12.1 8.50005 12.27C8.64005 12.44 10.26 14.94 12.75 16C13.34 16.27 13.8 16.42 14.16 16.53C14.75 16.72 15.29 16.69 15.72 16.63C16.2 16.56 17.18 16.03 17.39 15.45C17.6 14.87 17.6 14.38 17.54 14.27C17.47 14.17 17.31 14.11 17.06 14C16.81 13.86 15.59 13.26 15.37 13.18C15.14 13.1 15 13.06 14.81 13.3C14.65 13.55 14.17 14.11 14.03 14.27C13.88 14.44 13.74 14.46 13.5 14.34C13.24 14.21 12.44 13.95 11.5 13.11C10.76 12.45 10.27 11.64 10.12 11.39C10 11.15 10.11 11 10.23 10.89C10.34 10.78 10.5 10.6 10.6 10.45C10.73 10.31 10.77 10.2 10.85 10.04C10.93 9.87 10.89 9.73 10.83 9.61C10.77 9.5 10.27 8.26 10.06 7.77C9.86005 7.29 9.66005 7.35 9.50005 7.34C9.36005 7.34 9.20005 7.33 9.03005 7.33Z" fill="white"/>
</svg>
